<?xml version="1.0" encoding="utf-8"?>
<!-- Generator: Adobe Illustrator 24.2.0, SVG Export Plug-In . SVG Version: 6.00 Build 0)  -->
<svg version="1.1" id="Camada_1" xmlns="http://www.w3.org/2000/svg" xmlns:xlink="http://www.w3.org/1999/xlink" x="0px" y="0px"
	 viewBox="0 0 1024 1024" style="enable-background:new 0 0 1024 1024;" xml:space="preserve">
<style type="text/css">
	.st0{fill:#A698FF;}
	.st1{fill:#F7B801;}
	.st2{fill:#FFFFFF;}
	.st3{fill:#7964FF;}
</style>
<g>
	<path class="st0" d="M911.5,183.9l-25.4-5.3c-2.4-7.9-5.5-15.6-9.1-22.9l14.9-22.9c7.3-7.3,7.3-19.2,0-26.4L860.5,75
		c-7.3-7.3-19.2-7.3-26.4,0l-21.7,14.2c-7.2-3.8-14.7-7.1-22.6-9.8l-5.6-26.7c0-10.3-8.4-18.7-18.7-18.7H721
		c-10.3,0-18.7,8.4-18.7,18.7L697,78.1c-7.9,2.4-15.6,5.5-22.9,9.1l-22.9-14.9c-7.3-7.3-19.2-7.3-26.4,0l-31.5,31.5
		c-7.3,7.3-7.3,19.2,0,26.4l14.2,21.7c-3.8,7.2-7.1,14.7-9.8,22.6L571,180c-10.3,0-18.7,8.4-18.7,18.7v44.6
		c0,10.3,8.4,18.7,18.7,18.7l25.4,5.3c2.4,7.9,5.5,15.6,9.1,22.9L590.6,313c-7.3,7.3-7.3,19.2,0,26.4l31.5,31.5
		c7.3,7.3,19.2,7.3,26.4,0l21.7-14.2c7.2,3.8,14.7,7.1,22.6,9.8l5.6,26.7c0,10.3,8.4,18.7,18.7,18.7h44.6c10.3,0,18.7-8.4,18.7-18.7
		l5.3-25.4c7.9-2.4,15.6-5.5,22.9-9.1l22.9,14.9c7.3,7.3,19.2,7.3,26.4,0l31.5-31.5c7.3-7.3,7.3-19.2,0-26.4L875.1,294
		c3.8-7.2,7.1-14.7,9.8-22.6l26.7-5.6c10.3,0,18.7-8.4,18.7-18.7v-44.6C930.2,192.3,921.8,183.9,911.5,183.9z"/>
	<g>
		<path class="st1" d="M497.5,989.5V880.1h80.7v-25.4h-80.7v-55.3h136.1v190.1H497.5z M552.9,908.5v25.4h25.4v-25.4H552.9z"/>
		<path class="st1" d="M714.3,989.5H659V799.4h109.2v55.3h-53.8V989.5z"/>
	</g>
	<g>
		<polygon points="229.9,854.7 229.9,799.4 133.3,799.4 133.3,799 93.8,799 93.8,826.3 93.8,830.2 93.8,878 93.8,881.6 93.8,908.5 
			120.7,908.5 174.5,908.5 174.5,933.9 93.8,933.9 93.8,989.5 189.4,989.5 189.4,990.2 229.9,990.2 229.9,962.4 229.9,907 
			229.9,880.1 203,880.1 149.1,880.1 149.1,854.7 		"/>
		<polygon points="445.2,799.4 255.3,799.4 255.3,989.5 310.6,989.5 310.6,854.7 336,854.7 336,989.5 391.4,989.5 391.4,854.7 
			416.8,854.7 416.8,989.5 472.1,989.5 472.1,827.1 472.1,826.3 472.1,799.4 		"/>
		<polygon points="902.8,854.7 902.8,799.4 848.9,799.4 848.9,745.5 793.6,745.5 793.6,962.4 793.6,989.5 820.5,989.5 902.8,989.5 
			902.8,933.9 848.9,933.9 848.9,854.7 		"/>
	</g>
	<g>
		<path class="st2" d="M714.7,300.5c-0.8,0-1.6-0.2-2.3-0.5c-2.2-1.1-3.3-3.5-2.8-5.9l13.1-54.7l-31.1-0.5c-2,0-3.8-1.2-4.6-3
			c-0.8-1.8-0.6-3.9,0.7-5.5l70.4-87.6c1.5-1.9,4.2-2.5,6.3-1.4c2.2,1.1,3.3,3.5,2.8,5.9l-13.1,54.7l31.1,0.5c2,0,3.8,1.2,4.6,3
			c0.8,1.8,0.6,3.9-0.7,5.5l-70.4,87.6C717.7,299.8,716.2,300.5,714.7,300.5z M702.4,228.7l26.9,0.4c1.6,0,3.1,0.8,4,2
			c1,1.2,1.3,2.9,1,4.4l-9.2,38.5l49.3-61.3l-26.9-0.4c-1.6,0-3.1-0.8-4-2c-1-1.2-1.3-2.9-1-4.4l9.2-38.5L702.4,228.7z"/>
	</g>
	<path class="st3" d="M600,388l-35.7-7.5c-3.4-11.1-7.7-21.9-12.8-32.2l21-32.2c10.2-10.2,10.2-27,0-37.2l-44.4-44.4
		c-10.2-10.2-27-10.2-37.2,0l-30.6,20c-10.1-5.4-20.8-10-31.8-13.7l-7.9-37.6c0-14.5-11.8-26.3-26.3-26.3h-62.7
		c-14.5,0-26.3,11.8-26.3,26.3l-7.5,35.7c-11.1,3.4-21.9,7.7-32.2,12.8l-32.2-21c-10.2-10.2-27-10.2-37.2,0l-44.4,44.4
		c-10.2,10.2-10.2,27,0,37.2l20,30.6c-5.4,10.1-10,20.8-13.7,31.8l-37.6,7.9c-14.5,0-26.3,11.8-26.3,26.3v62.7
		c0,14.5,11.8,26.3,26.3,26.3l35.7,7.5c3.4,11.1,7.7,21.9,12.8,32.2l-21,32.2c-10.2,10.2-10.2,27,0,37.2l44.4,44.4
		c10.2,10.2,27,10.2,37.2,0l30.6-20c10.1,5.4,20.8,10,31.8,13.7l7.9,37.6c0,14.5,11.8,26.3,26.3,26.3h62.7
		c14.5,0,26.3-11.8,26.3-26.3l7.5-35.7c11.1-3.4,21.9-7.7,32.2-12.8l32.2,21c10.2,10.2,27,10.2,37.2,0l44.4-44.4
		c10.2-10.2,10.2-27,0-37.2l-20-30.6c5.4-10.1,10-20.8,13.7-31.8l37.6-7.9c14.5,0,26.3-11.8,26.3-26.3v-62.7
		C626.3,399.8,614.4,388,600,388z"/>
	<path class="st2" d="M502.7,516.7l-32.2-18.6l31.4-14.1c3.7-1.6,5.3-6,3.7-9.6c-1.6-3.7-6-5.3-9.6-3.7l-41,18.4l-38.5-22.2v-48
		l38.5-22.2l41,18.4c1,0.4,2,0.6,3,0.6c2.8,0,5.4-1.6,6.6-4.3c1.6-3.7,0-8-3.7-9.6l-31.4-14.1l32.2-18.6c3.5-2,4.7-6.5,2.7-9.9
		c-2-3.5-6.5-4.7-9.9-2.7l-32.2,18.6l3.5-34.2c0.4-4-2.5-7.6-6.5-8c-4-0.4-7.6,2.5-8,6.5l-4.6,44.7l-38.5,22.2l-41.5-24v-44.5
		l36.4-26.3c3.3-2.4,4-6.9,1.6-10.2c-2.4-3.3-6.9-4-10.2-1.6l-27.9,20.1v-37.2c0-4-3.3-7.3-7.3-7.3s-7.3,3.3-7.3,7.3v37.2
		l-27.9-20.1c-3.3-2.4-7.8-1.6-10.2,1.6c-2.4,3.3-1.6,7.8,1.6,10.2l36.4,26.3v44.5l-41.5,24l-38.5-22.2l-4.6-44.7
		c-0.4-4-3.9-6.9-8-6.5c-4,0.4-6.9,4-6.5,8l3.5,34.2l-32.2-18.6c-3.5-2-7.9-0.8-9.9,2.7c-2,3.5-0.8,7.9,2.7,9.9l32.2,18.6
		l-31.4,14.1c-3.7,1.6-5.3,6-3.7,9.6c1.2,2.7,3.9,4.3,6.6,4.3c1,0,2-0.2,3-0.6l41-18.4l38.5,22.2v48l-38.5,22.2l-41-18.4
		c-3.7-1.6-8,0-9.6,3.7c-1.6,3.7,0,8,3.7,9.6l31.4,14.1l-32.2,18.6c-3.5,2-4.7,6.5-2.7,9.9c1.3,2.3,3.8,3.6,6.3,3.6
		c1.2,0,2.5-0.3,3.6-1l32.2-18.6l-3.5,34.2c-0.4,4,2.5,7.6,6.5,8c0.3,0,0.5,0,0.7,0c3.7,0,6.8-2.8,7.2-6.5l4.6-44.7l38.5-22.2
		l41.5,24V548l-36.4,26.3c-3.3,2.4-4,6.9-1.6,10.2c1.4,2,3.6,3,5.9,3c1.5,0,3-0.4,4.3-1.4l27.9-20.1v37.2c0,4,3.3,7.3,7.3,7.3
		s7.3-3.3,7.3-7.3v-37.2l27.9,20.1c1.3,0.9,2.8,1.4,4.3,1.4c2.3,0,4.5-1,5.9-3c2.4-3.3,1.6-7.8-1.6-10.2L367.5,548v-44.5l41.5-24
		l38.5,22.2l4.6,44.7c0.4,3.7,3.5,6.5,7.2,6.5c0.2,0,0.5,0,0.7,0c4-0.4,6.9-4,6.5-8l-3.5-34.2l32.2,18.6c1.1,0.7,2.4,1,3.6,1
		c2.5,0,5-1.3,6.3-3.6C507.3,523.2,506.1,518.7,502.7,516.7z M401.8,466.9l-41.5,24l-41.5-24v-48l41.5-24l41.5,24V466.9z"/>
</g>
</svg>
